PathFileType	4	(X/Y/Z)	C:\Git\research_data\Projects\torsion_deformities_healthy_kinematics\simulations\TD01\pre\static_01\marker_experimental.trc
DataRate	CameraRate	NumFrames	NumMarkers	Units	OrigDataRate	OrigDataStartFrame	OrigNumFrames
200	200	8	38	mm	200	126	200
Frame#	Time	C7			T10			CLAV			STRN			RBAK			LASI			RASI			SACR			RT1			RT2			RT3			RKNE			RS1			RS2			RS3			RANK			RHEE			RTOE			LT1			LT2			LT3			LKNE			LS1			LS2			LS3			LANK			LHEE			LTOE			LANM			RANM			RKNM			LKNM			RHJC			LHJC			LKJC			LAJC			RKJC			RAJC		
		X1	Y1	Z1	X2	Y2	Z2	X3	Y3	Z3	X4	Y4	Z4	X5	Y5	Z5	X6	Y6	Z6	X7	Y7	Z7	X8	Y8	Z8	X9	Y9	Z9	X10	Y10	Z10	X11	Y11	Z11	X12	Y12	Z12	X13	Y13	Z13	X14	Y14	Z14	X15	Y15	Z15	X16	Y16	Z16	X17	Y17	Z17	X18	Y18	Z18	X19	Y19	Z19	X20	Y20	Z20	X21	Y21	Z21	X22	Y22	Z22	X23	Y23	Z23	X24	Y24	Z24	X25	Y25	Z25	X26	Y26	Z26	X27	Y27	Z27	X28	Y28	Z28	X29	Y29	Z29	X30	Y30	Z30	X31	Y31	Z31	X32	Y32	Z32	X33	Y33	Z33	X34	Y34	Z34	X35	Y35	Z35	X36	Y36	Z36	X37	Y37	Z37	X38	Y38	Z38	

126	0.625000	610.307007	1225.566895	306.188782	608.767700	1033.753052	304.733704	623.398437	1224.572266	171.516434	623.872742	1102.246826	102.657715	703.401001	1158.591187	327.655304	516.004639	851.954834	132.370956	719.695740	859.838013	147.661301	606.385254	881.177673	302.843048	791.478943	662.448547	195.712051	803.559631	611.345459	237.154526	793.891541	596.645691	187.406952	815.608887	470.589264	224.984833	858.004822	358.960236	293.779114	859.128967	294.612640	311.227631	876.948608	302.069366	264.536682	895.182251	94.501457	285.544739	834.898132	74.287041	313.326477	920.434875	65.814125	144.412704	437.823792	664.867004	199.786865	430.004456	606.004639	230.085739	437.961029	601.689026	179.206161	410.531128	460.709686	223.464951	367.996674	341.406311	296.318176	360.454315	276.961395	309.169556	349.738617	288.351654	260.472321	336.247101	96.640038	308.597809	386.599762	76.925522	326.583923	285.373077	64.416199	164.639343	402.006805	91.658051	250.296082	817.362976	103.312332	239.421509	712.715881	431.358551	216.423752	522.817261	421.157013	218.031754	690.305219	795.018612	205.618690	541.320885	789.252674	194.434981	466.674194	440.933350	220.748352	369.126953	94.149044	279.446945	764.162384	450.973907	220.704292	856.272614	98.906895	262.483124	
127	0.630000	610.293091	1225.600830	306.162170	608.771484	1033.786133	304.743927	623.343811	1224.560303	171.451736	623.861267	1102.201416	102.682411	703.368286	1158.651978	327.645355	516.019165	851.929810	132.411682	719.714478	859.839233	147.741776	606.371643	881.206909	302.917023	791.494141	662.440125	195.841858	803.559509	611.341187	237.268524	793.893860	596.661499	187.511353	815.625610	470.596527	225.054108	858.016357	358.965576	293.838928	859.136414	294.610931	311.274719	876.973083	302.092316	264.577545	895.188477	94.495232	285.549896	834.908752	74.291779	313.344666	920.440796	65.811897	144.429733	437.662994	664.923584	199.827866	430.068268	605.934387	230.234955	437.603119	601.725098	179.017258	410.549683	460.716919	223.531708	368.005005	341.398346	296.370056	360.545807	277.058685	309.166809	349.757416	288.349579	260.519409	336.245392	96.624199	308.589386	386.595398	76.925194	326.595917	285.380615	64.417152	164.637924	402.067352	91.625069	250.487564	817.355835	103.318855	239.440170	712.726990	431.366669	216.485168	522.816406	421.170166	218.086472	690.317637	795.028753	205.714084	541.330805	789.243643	194.501346	466.683044	440.943542	220.809090	369.156372	94.124634	279.538475	764.176300	450.981598	220.769638	856.272156	98.907043	262.495033	
128	0.635000	610.244080	1225.628662	306.142914	608.756348	1033.833496	304.758148	623.335693	1224.558594	171.397873	623.846008	1102.154419	102.682556	703.346436	1158.735229	327.632843	516.035767	851.911926	132.443954	719.726074	859.822998	147.837128	606.360291	881.230896	302.981506	791.510193	662.460388	195.939087	803.567139	611.359741	237.368134	793.921082	596.665955	187.613083	815.635010	470.588959	225.134232	858.033569	358.979370	293.918610	859.164795	294.605286	311.317688	876.970581	302.092896	264.606262	895.187439	94.487999	285.554504	834.919739	74.283684	313.352295	920.426819	65.810371	144.426529	437.683533	664.916321	199.930634	430.012421	606.005005	230.244431	437.517548	601.866455	179.097534	410.566162	460.717010	223.616745	368.026428	341.383453	296.427185	360.479736	276.943176	309.240356	349.765045	288.358032	260.565430	336.240723	96.624199	308.600067	386.584839	76.921692	326.621796	285.388641	64.423531	164.634689	401.990509	91.660500	250.235214	817.362671	103.331940	239.445328	712.732544	431.379700	216.563019	522.825684	421.174103	218.152710	690.309971	795.026923	205.817474	541.326787	789.240606	194.558597	466.695923	440.945557	220.884727	369.115616	94.142349	279.417641	764.183777	450.984329	220.848625	856.275055	98.909969	262.499916	
129	0.640000	610.207214	1225.678589	306.117523	608.733093	1033.867065	304.753296	623.316650	1224.580444	171.336029	623.819397	1102.128906	102.691849	703.333679	1158.774780	327.598145	516.048279	851.893433	132.493286	719.725220	859.813599	147.923126	606.356812	881.262817	303.040497	791.516907	662.477173	196.047958	803.547913	611.313538	237.484344	793.933044	596.665588	187.716629	815.637756	470.591492	225.203506	858.015747	358.975922	293.934723	859.183228	294.616486	311.361450	876.983887	302.079834	264.664520	895.201538	94.491493	285.559937	834.927734	74.286400	313.351563	920.429443	65.821175	144.426559	437.695526	664.920898	200.003586	430.116486	605.861084	230.451370	437.703949	601.771118	179.368454	410.587524	460.711334	223.694489	368.024475	341.381226	296.477112	360.494385	276.945251	309.295197	349.766724	288.356018	260.604248	336.230072	96.606750	308.599274	386.579285	76.917740	326.640869	285.393097	64.425407	164.634247	402.009308	91.652527	250.311722	817.376892	103.329506	239.460587	712.749084	431.376099	216.642212	522.841003	421.163269	218.214828	690.301145	795.036012	205.915276	541.327011	789.243016	194.629526	466.714264	440.937302	220.954659	369.119690	94.129639	279.455498	764.193420	450.983795	220.922859	856.289215	98.910500	262.510262	
130	0.645000	610.185486	1225.722046	306.057678	608.718750	1033.903198	304.769379	623.289673	1224.577759	171.265488	623.818604	1102.072144	102.707085	703.265747	1158.827515	327.597168	516.055847	851.871521	132.537262	719.736755	859.790100	148.007813	606.345825	881.296143	303.098328	791.512878	662.466553	196.159149	803.576721	611.336182	237.600555	793.940674	596.675293	187.825745	815.634338	470.587158	225.280380	858.049255	358.983704	294.005615	859.177673	294.608856	311.406799	876.945801	302.054474	264.706055	895.204712	94.481010	285.571289	834.940063	74.285805	313.359741	920.420776	65.820930	144.438263	437.893280	664.872925	200.114975	429.987793	605.966003	230.471985	437.704315	601.772522	179.437225	410.595001	460.716217	223.783096	368.042755	341.378784	296.548584	360.494446	276.931763	309.338684	349.770050	288.355682	260.642151	336.215485	96.604691	308.611237	386.569183	76.914886	326.653717	285.407379	64.427483	164.632599	401.995422	91.651482	250.267059	817.381836	103.335007	239.473541	712.755798	431.383209	216.710495	522.860046	421.173981	218.272644	690.297048	795.030998	206.016585	541.320508	789.239181	194.701096	466.727524	440.945099	221.027870	369.105453	94.128086	279.439148	764.195068	450.985184	220.995438	856.293274	98.908009	262.522415	
131	0.650000	610.157532	1225.760986	305.993805	608.719482	1033.942139	304.751740	623.286011	1224.590576	171.201904	623.798523	1102.038452	102.693283	703.250122	1158.912354	327.604248	516.071960	851.850342	132.558655	719.766907	859.770081	148.088058	606.336121	881.332581	303.156494	791.549133	662.477478	196.259094	803.571838	611.330872	237.706833	793.933899	596.681335	187.925873	815.653076	470.588867	225.343597	858.058960	359.011993	294.048767	859.184143	294.591797	311.442932	876.937134	302.042023	264.741119	895.213562	94.477898	285.567810	834.936646	74.281029	313.370392	920.415894	65.819901	144.438965	437.713501	664.893250	200.180374	430.056396	606.002502	230.477905	437.811127	601.709045	179.286896	410.605499	460.721558	223.853882	368.057465	341.361298	296.584564	360.791351	276.890076	309.349304	349.780273	288.358948	260.690186	336.213776	96.601639	308.607086	386.563202	76.912201	326.657928	285.406830	64.434341	164.639709	402.001404	91.649879	250.291245	817.375427	103.341896	239.474411	712.767395	431.378815	216.764801	522.884216	421.159210	218.343933	690.305281	795.025737	206.114330	541.319789	789.233123	194.755895	466.744858	440.940384	221.098907	369.107590	94.125759	279.449165	764.210236	450.983841	221.054199	856.294495	98.909897	262.521111	
132	0.655000	610.130432	1225.798706	305.946381	608.717285	1033.976196	304.758118	623.266663	1224.565552	171.158859	623.802917	1102.000366	102.682076	703.216003	1158.965820	327.561493	516.082947	851.823975	132.596802	719.774536	859.754089	148.174377	606.335693	881.370850	303.219086	791.542480	662.476685	196.368958	803.618530	611.349915	237.795837	793.951538	596.672363	188.034546	815.652405	470.595490	225.420486	858.049377	358.984314	294.117798	859.183411	294.591644	311.491364	876.957886	302.041779	264.789612	895.216614	94.476303	285.574677	834.938721	74.278473	313.373810	920.400757	65.820908	144.441025	437.725037	664.905701	200.241364	430.013367	605.961548	230.641037	437.814026	601.708618	179.387009	410.623718	460.720184	223.942581	368.078918	341.350586	296.631470	360.789764	276.879608	309.401428	349.804230	288.369110	260.710114	336.202454	96.590302	308.604492	386.576508	76.907722	326.674683	285.414978	64.435326	164.635864	401.996826	91.650986	250.268494	817.382141	103.342659	239.487839	712.773560	431.384155	216.843414	523.021667	421.205841	218.278580	690.299655	795.029491	206.218368	541.316671	789.229291	194.824704	466.822693	440.963013	221.110580	369.099640	94.120644	279.436493	764.212982	450.989822	221.131950	856.299377	98.909481	262.531258	
133	0.660000	610.091125	1225.827393	305.930054	608.688660	1034.022827	304.748108	623.253235	1224.556763	171.098083	623.796997	1101.963623	102.689583	703.223694	1159.032471	327.531342	516.101562	851.800537	132.631958	719.786804	859.746704	148.259552	606.318115	881.422119	303.277496	791.522827	662.490417	196.473358	803.571838	611.327026	237.909622	793.962280	596.684387	188.115585	815.646240	470.602478	225.478714	858.050537	358.969604	294.138885	859.203552	294.583923	311.524750	876.972229	302.057190	264.823273	895.233276	94.474709	285.571136	834.953918	74.281517	313.377197	920.406494	65.823273	144.444458	437.729675	664.905945	200.308365	430.110626	605.889465	230.804077	437.841003	601.705261	179.473526	410.635620	460.730072	224.033432	368.089691	341.343658	296.698090	360.804108	276.873322	309.428833	349.804413	288.372345	260.760498	336.210480	96.591629	308.625427	386.566650	76.904854	326.669189	285.415192	64.437973	164.641937	401.997864	91.658478	250.309250	817.383301	103.338020	239.487793	712.776123	431.389008	216.907181	522.901733	421.171661	218.508347	690.299953	795.044867	206.324220	541.321477	789.232920	194.893961	466.768677	440.950867	221.270889	369.104172	94.125053	279.467339	764.211182	450.995743	221.192947	856.308289	98.906364	262.529465	
